<svg xmlns="http://www.w3.org/2000/svg" width="12.281" height="15.069" viewBox="0 0 12.281 15.069">
  <g id="location" transform="translate(0.15 0.15)">
    <path id="Path_64" data-name="Path 64" d="M91.751,61.722l4.1,4.365a.217.217,0,0,0,.316,0l4.1-4.365a6.36,6.36,0,0,0,1.365-2.167,5.9,5.9,0,0,0,.357-2.431,6.266,6.266,0,0,0-1.809-4.007,5.887,5.887,0,0,0-8.338,0,6.265,6.265,0,0,0-1.809,4.007,5.9,5.9,0,0,0,.357,2.431A6.361,6.361,0,0,0,91.751,61.722Zm-1.29-4.569a5.833,5.833,0,0,1,1.684-3.73,5.454,5.454,0,0,1,7.725,0,5.833,5.833,0,0,1,1.684,3.73,5.474,5.474,0,0,1-.331,2.253,5.93,5.93,0,0,1-1.274,2.019l-3.94,4.2-3.94-4.2a5.93,5.93,0,0,1-1.274-2.019,5.474,5.474,0,0,1-.331-2.253Z" transform="translate(-90.016 -51.387)" stroke="#000" stroke-width="0.3"/>
    <path id="Path_65" data-name="Path 65" d="M184.694,138.52a2.736,2.736,0,1,0-2.67-2.736A2.706,2.706,0,0,0,184.694,138.52Zm0-5.038a2.3,2.3,0,1,1-2.237,2.3,2.273,2.273,0,0,1,2.237-2.3Z" transform="translate(-178.704 -130.102)" stroke="#000" stroke-width="0.3"/>
  </g>
</svg>
