<svg xmlns="http://www.w3.org/2000/svg" width="13.84" height="12.851" viewBox="0 0 13.84 12.851">
  <path id="Icon_ionic-ios-star" data-name="Icon ionic-ios-star" d="M15.564,7.823H11.02L9.639,3.7a.5.5,0,0,0-.939,0L7.319,7.823H2.744a.5.5,0,0,0-.494.494.363.363,0,0,0,.009.083.475.475,0,0,0,.207.349L6.2,11.382,4.768,15.55a.5.5,0,0,0,.17.556.478.478,0,0,0,.278.12.606.606,0,0,0,.309-.111l3.645-2.6,3.645,2.6a.579.579,0,0,0,.309.111.444.444,0,0,0,.275-.12.49.49,0,0,0,.17-.556l-1.433-4.167,3.7-2.657.09-.077a.472.472,0,0,0-.365-.825Z" transform="translate(-2.25 -3.375)" fill="#fff"/>
</svg>
