<svg xmlns="http://www.w3.org/2000/svg" width="14.658" height="14.658" viewBox="0 0 14.658 14.658">
  <g id="Icon_feather-settings" data-name="Icon feather-settings" transform="translate(0.5 0.5)">
    <path id="Path_115" data-name="Path 115" d="M17.225,15.362A1.862,1.862,0,1,1,15.362,13.5,1.862,1.862,0,0,1,17.225,15.362Z" transform="translate(-8.534 -8.534)" fill="none" stroke="#404040" stroke-linecap="round" stroke-linejoin="round" stroke-width="1"/>
    <path id="Path_116" data-name="Path 116" d="M12.923,10.191a1.024,1.024,0,0,0,.2,1.13l.037.037a1.242,1.242,0,1,1-1.757,1.757l-.037-.037a1.033,1.033,0,0,0-1.751.733v.106a1.242,1.242,0,0,1-2.483,0V13.86a1.075,1.075,0,0,0-1.8-.733l-.037.037a1.242,1.242,0,1,1-1.757-1.757l.037-.037A1.033,1.033,0,0,0,2.847,9.62H2.742a1.242,1.242,0,1,1,0-2.483H2.8a1.075,1.075,0,0,0,.733-1.8L3.493,5.3A1.242,1.242,0,1,1,5.25,3.542l.037.037a1.024,1.024,0,0,0,1.13.2h.05a1.024,1.024,0,0,0,.621-.937V2.742a1.242,1.242,0,1,1,2.483,0V2.8a1.033,1.033,0,0,0,1.751.733l.037-.037A1.242,1.242,0,1,1,13.115,5.25l-.037.037a1.024,1.024,0,0,0-.2,1.13v.05a1.024,1.024,0,0,0,.937.621h.106a1.242,1.242,0,1,1,0,2.483H13.86a1.024,1.024,0,0,0-.937.621Z" transform="translate(-1.5 -1.5)" fill="none" stroke="#404040" stroke-linecap="round" stroke-linejoin="round" stroke-width="1"/>
  </g>
</svg>
