<svg xmlns="http://www.w3.org/2000/svg" width="23.282" height="16.298" viewBox="0 0 23.282 16.298">
  <path id="Icon_awesome-user-friends" data-name="Icon awesome-user-friends" d="M6.985,10.4A4.074,4.074,0,1,0,2.91,6.324,4.072,4.072,0,0,0,6.985,10.4Zm2.794,1.164h-.3a5.625,5.625,0,0,1-4.984,0h-.3A4.192,4.192,0,0,0,0,15.754V16.8a1.747,1.747,0,0,0,1.746,1.746H12.223A1.747,1.747,0,0,0,13.969,16.8V15.754A4.192,4.192,0,0,0,9.779,11.563ZM17.462,10.4a3.492,3.492,0,1,0-3.492-3.492A3.493,3.493,0,0,0,17.462,10.4Zm1.746,1.164H19.07a4.587,4.587,0,0,1-3.216,0h-.138a4.041,4.041,0,0,0-2.026.56,5.324,5.324,0,0,1,1.444,3.631v1.4c0,.08-.018.156-.022.233h6.424a1.747,1.747,0,0,0,1.746-1.746,4.072,4.072,0,0,0-4.074-4.074Z" transform="translate(0 -2.25)" fill="#585858"/>
</svg>
