<svg xmlns="http://www.w3.org/2000/svg" width="13.008" height="8.675" viewBox="0 0 13.008 8.675">
  <path id="Icon_ionic-ios-arrow-round-forward" data-name="Icon ionic-ios-arrow-round-forward" d="M16.17,11.418a.59.59,0,0,0,0,.831L18.913,15H8.458a.587.587,0,0,0,0,1.175h10.45l-2.747,2.752a.6.6,0,0,0,0,.831.585.585,0,0,0,.827,0L20.716,16h0a.66.66,0,0,0,.122-.185.561.561,0,0,0,.045-.226.589.589,0,0,0-.167-.411l-3.723-3.75A.576.576,0,0,0,16.17,11.418Z" transform="translate(-7.875 -11.252)" fill="#323232"/>
</svg>
