<svg xmlns="http://www.w3.org/2000/svg" width="14.792" height="12.41" viewBox="0 0 14.792 12.41">
  <path id="Path_192" data-name="Path 192" d="M13.1,44.452H10.123v-.6a1.192,1.192,0,0,0-1.191-1.191H5.359a1.192,1.192,0,0,0-1.191,1.191v.6H1.191A1.192,1.192,0,0,0,0,45.643v7.741a1.192,1.192,0,0,0,1.191,1.191H13.1a1.192,1.192,0,0,0,1.191-1.191V45.643A1.192,1.192,0,0,0,13.1,44.452Zm-8.337-.6a.6.6,0,0,1,.6-.6H8.932a.6.6,0,0,1,.6.6v.6H4.764ZM13.7,53.385a.6.6,0,0,1-.6.6H1.191a.6.6,0,0,1-.6-.6V49.051a1.177,1.177,0,0,0,.6.166H5.955v.893a.3.3,0,0,0,.3.3H8.039a.3.3,0,0,0,.3-.3v-.893H13.1a1.177,1.177,0,0,0,.6-.166v4.334ZM6.55,49.812V48.621H7.741v1.191ZM13.7,48.025a.6.6,0,0,1-.6.6H8.337v-.3a.3.3,0,0,0-.3-.3H6.253a.3.3,0,0,0-.3.3v.3H1.191a.6.6,0,0,1-.6-.6V45.643a.6.6,0,0,1,.6-.6H13.1a.6.6,0,0,1,.6.6Z" transform="translate(0.25 -42.416)" fill="#404040" stroke="#4076dd" stroke-width="0.5"/>
</svg>
