<svg xmlns="http://www.w3.org/2000/svg" width="11.973" height="11.118" viewBox="0 0 11.973 11.118">
  <path id="Icon_ionic-ios-star" data-name="Icon ionic-ios-star" d="M13.769,7.224H9.837L8.643,3.658a.433.433,0,0,0-.812,0L6.636,7.224H2.678a.429.429,0,0,0-.428.428.314.314,0,0,0,.008.072.411.411,0,0,0,.179.3L5.668,10.3l-1.24,3.605a.429.429,0,0,0,.147.481.414.414,0,0,0,.241.1.524.524,0,0,0,.267-.1l3.154-2.248L11.39,14.4a.5.5,0,0,0,.267.1.384.384,0,0,0,.238-.1.424.424,0,0,0,.147-.481L10.8,10.3l3.2-2.3.078-.067a.409.409,0,0,0-.315-.714Z" transform="translate(-2.25 -3.375)" fill="#ffc800"/>
</svg>
