<svg xmlns="http://www.w3.org/2000/svg" width="21.134" height="12.68" viewBox="0 0 21.134 12.68">
  <path id="Icon_awesome-bed" data-name="Icon awesome-bed" d="M5.812,10.84A2.642,2.642,0,1,0,3.17,8.2,2.645,2.645,0,0,0,5.812,10.84ZM17.435,6.613h-7.4a.528.528,0,0,0-.528.528V11.9h-7.4V5.028A.528.528,0,0,0,1.585,4.5H.528A.528.528,0,0,0,0,5.028V16.652a.528.528,0,0,0,.528.528H1.585a.528.528,0,0,0,.528-.528V15.067H19.02v1.585a.528.528,0,0,0,.528.528h1.057a.528.528,0,0,0,.528-.528v-6.34A3.7,3.7,0,0,0,17.435,6.613Z" transform="translate(0 -4.5)" fill="#585858"/>
</svg>
