<svg xmlns="http://www.w3.org/2000/svg" width="21.673" height="15.564" viewBox="0 0 21.673 15.564">
  <g id="TV" transform="translate(-0.097 -0.218)">
    <g id="Group">
      <path id="Shape" d="M.752,13.77A.755.755,0,0,1,0,13.019V.752A.755.755,0,0,1,.752,0h20.17a.755.755,0,0,1,.752.752V13.019a.755.755,0,0,1-.752.752Z" transform="translate(0.097 0.218)" fill="#585858"/>
      <path id="Shape-2" data-name="Shape" d="M11.879,0a.435.435,0,0,1,.436.436h0a.415.415,0,0,1-.436.412H.509C.218.848,0,.727,0,.436,0,.1.218,0,.533,0Z" transform="translate(4.752 14.933)" fill="#585858"/>
      <path id="Shape-3" data-name="Shape" d="M.339,0A2.644,2.644,0,0,0,.606.145C2.061.994,3.539,1.818,4.994,2.667c.461.267.461.461-.024.727C3.515,4.242,2.085,5.067.63,5.891.17,6.158,0,6.061,0,5.527V.461C0,.242,0,.024.339,0Z" transform="translate(8.727 4.364)" fill="#585858"/>
    </g>
  </g>
</svg>
