<svg xmlns="http://www.w3.org/2000/svg" width="31.43" height="20.962" viewBox="0 0 31.43 20.962">
  <path id="Icon_ionic-ios-arrow-round-forward" data-name="Icon ionic-ios-arrow-round-forward" d="M27.919,11.653a1.427,1.427,0,0,0-.011,2.009l6.638,6.648H9.283a1.419,1.419,0,0,0,0,2.838H34.534L27.9,29.8a1.437,1.437,0,0,0,.011,2.009,1.413,1.413,0,0,0,2-.011l9-9.061h0a1.594,1.594,0,0,0,.295-.448,1.355,1.355,0,0,0,.109-.546,1.423,1.423,0,0,0-.4-.993l-9-9.061A1.391,1.391,0,0,0,27.919,11.653Z" transform="translate(-7.875 -11.252)"/>
</svg>
