<svg id="hotel" xmlns="http://www.w3.org/2000/svg" width="13.155" height="12.935" viewBox="0 0 13.155 12.935">
  <g id="Group_49" data-name="Group 49">
    <g id="Group_48" data-name="Group 48" transform="translate(0 0)">
      <path id="Path_26" data-name="Path 26" d="M12.935,5.973H10.524V4.219A.219.219,0,0,0,10.3,4H2.85a.219.219,0,0,0-.219.219V7.289H.219A.219.219,0,0,0,0,7.508V16.5a.219.219,0,0,0,.438,0V7.727H2.631v8.989a.219.219,0,0,0,.219.219H10.3a.219.219,0,0,0,.219-.219V6.412h2.192V16.5a.219.219,0,0,0,.438,0V6.192A.219.219,0,0,0,12.935,5.973ZM6.358,16.5H5.481V14.524h.877Zm1.315,0H6.8V14.524h.877Zm2.412,0H8.112V14.3a.219.219,0,0,0-.219-.219H5.262a.219.219,0,0,0-.219.219V16.5H3.069V4.438h7.016Z" transform="translate(0 -4)"/>
    </g>
  </g>
  <g id="Group_51" data-name="Group 51" transform="translate(3.508 0.877)">
    <g id="Group_50" data-name="Group 50" transform="translate(0 0)">
      <path id="Path_27" data-name="Path 27" d="M129.535,36h-1.315a.219.219,0,0,0-.219.219v1.315a.219.219,0,0,0,.219.219h1.315a.219.219,0,0,0,.219-.219V36.219A.219.219,0,0,0,129.535,36Zm-.219,1.315h-.877v-.877h.877Z" transform="translate(-128 -36)"/>
    </g>
  </g>
  <g id="Group_53" data-name="Group 53" transform="translate(5.7 0.877)">
    <g id="Group_52" data-name="Group 52" transform="translate(0 0)">
      <path id="Path_28" data-name="Path 28" d="M209.535,36h-1.315a.219.219,0,0,0-.219.219v1.315a.219.219,0,0,0,.219.219h1.315a.219.219,0,0,0,.219-.219V36.219A.219.219,0,0,0,209.535,36Zm-.219,1.315h-.877v-.877h.877Z" transform="translate(-208 -36)"/>
    </g>
  </g>
  <g id="Group_55" data-name="Group 55" transform="translate(7.893 0.877)">
    <g id="Group_54" data-name="Group 54" transform="translate(0 0)">
      <path id="Path_29" data-name="Path 29" d="M289.535,36h-1.315a.219.219,0,0,0-.219.219v1.315a.219.219,0,0,0,.219.219h1.315a.219.219,0,0,0,.219-.219V36.219A.219.219,0,0,0,289.535,36Zm-.219,1.315h-.877v-.877h.877Z" transform="translate(-288 -36)"/>
    </g>
  </g>
  <g id="Group_57" data-name="Group 57" transform="translate(3.508 3.069)">
    <g id="Group_56" data-name="Group 56" transform="translate(0 0)">
      <path id="Path_30" data-name="Path 30" d="M129.535,116h-1.315a.219.219,0,0,0-.219.219v1.315a.219.219,0,0,0,.219.219h1.315a.219.219,0,0,0,.219-.219v-1.315A.219.219,0,0,0,129.535,116Zm-.219,1.315h-.877v-.877h.877Z" transform="translate(-128 -116)"/>
    </g>
  </g>
  <g id="Group_59" data-name="Group 59" transform="translate(5.7 3.069)">
    <g id="Group_58" data-name="Group 58" transform="translate(0 0)">
      <path id="Path_31" data-name="Path 31" d="M209.535,116h-1.315a.219.219,0,0,0-.219.219v1.315a.219.219,0,0,0,.219.219h1.315a.219.219,0,0,0,.219-.219v-1.315A.219.219,0,0,0,209.535,116Zm-.219,1.315h-.877v-.877h.877Z" transform="translate(-208 -116)"/>
    </g>
  </g>
  <g id="Group_61" data-name="Group 61" transform="translate(7.893 3.069)">
    <g id="Group_60" data-name="Group 60" transform="translate(0 0)">
      <path id="Path_32" data-name="Path 32" d="M289.535,116h-1.315a.219.219,0,0,0-.219.219v1.315a.219.219,0,0,0,.219.219h1.315a.219.219,0,0,0,.219-.219v-1.315A.219.219,0,0,0,289.535,116Zm-.219,1.315h-.877v-.877h.877Z" transform="translate(-288 -116)"/>
    </g>
  </g>
  <g id="Group_63" data-name="Group 63" transform="translate(3.508 5.262)">
    <g id="Group_62" data-name="Group 62">
      <path id="Path_33" data-name="Path 33" d="M129.535,196h-1.315a.219.219,0,0,0-.219.219v1.315a.219.219,0,0,0,.219.219h1.315a.219.219,0,0,0,.219-.219v-1.315A.219.219,0,0,0,129.535,196Zm-.219,1.315h-.877v-.877h.877Z" transform="translate(-128 -196)"/>
    </g>
  </g>
  <g id="Group_65" data-name="Group 65" transform="translate(5.7 5.262)">
    <g id="Group_64" data-name="Group 64">
      <path id="Path_34" data-name="Path 34" d="M209.535,196h-1.315a.219.219,0,0,0-.219.219v1.315a.219.219,0,0,0,.219.219h1.315a.219.219,0,0,0,.219-.219v-1.315A.219.219,0,0,0,209.535,196Zm-.219,1.315h-.877v-.877h.877Z" transform="translate(-208 -196)"/>
    </g>
  </g>
  <g id="Group_67" data-name="Group 67" transform="translate(7.893 5.262)">
    <g id="Group_66" data-name="Group 66">
      <path id="Path_35" data-name="Path 35" d="M289.535,196h-1.315a.219.219,0,0,0-.219.219v1.315a.219.219,0,0,0,.219.219h1.315a.219.219,0,0,0,.219-.219v-1.315A.219.219,0,0,0,289.535,196Zm-.219,1.315h-.877v-.877h.877Z" transform="translate(-288 -196)"/>
    </g>
  </g>
  <g id="Group_69" data-name="Group 69" transform="translate(3.508 7.454)">
    <g id="Group_68" data-name="Group 68">
      <path id="Path_36" data-name="Path 36" d="M129.535,276h-1.315a.219.219,0,0,0-.219.219v1.315a.219.219,0,0,0,.219.219h1.315a.219.219,0,0,0,.219-.219v-1.315A.219.219,0,0,0,129.535,276Zm-.219,1.315h-.877v-.877h.877Z" transform="translate(-128 -276)"/>
    </g>
  </g>
  <g id="Group_71" data-name="Group 71" transform="translate(5.7 7.454)">
    <g id="Group_70" data-name="Group 70">
      <path id="Path_37" data-name="Path 37" d="M209.535,276h-1.315a.219.219,0,0,0-.219.219v1.315a.219.219,0,0,0,.219.219h1.315a.219.219,0,0,0,.219-.219v-1.315A.219.219,0,0,0,209.535,276Zm-.219,1.315h-.877v-.877h.877Z" transform="translate(-208 -276)"/>
    </g>
  </g>
  <g id="Group_73" data-name="Group 73" transform="translate(7.893 7.454)">
    <g id="Group_72" data-name="Group 72">
      <path id="Path_38" data-name="Path 38" d="M289.535,276h-1.315a.219.219,0,0,0-.219.219v1.315a.219.219,0,0,0,.219.219h1.315a.219.219,0,0,0,.219-.219v-1.315A.219.219,0,0,0,289.535,276Zm-.219,1.315h-.877v-.877h.877Z" transform="translate(-288 -276)"/>
    </g>
  </g>
  <g id="Group_75" data-name="Group 75" transform="translate(0.877 4.166)">
    <g id="Group_74" data-name="Group 74">
      <path id="Path_39" data-name="Path 39" d="M32.438,156h-.219a.219.219,0,0,0-.219.219v.219a.219.219,0,0,0,.219.219h.219a.219.219,0,0,0,.219-.219v-.219A.219.219,0,0,0,32.438,156Z" transform="translate(-32 -156)"/>
    </g>
  </g>
  <g id="Group_77" data-name="Group 77" transform="translate(1.754 4.166)">
    <g id="Group_76" data-name="Group 76">
      <path id="Path_40" data-name="Path 40" d="M64.438,156h-.219a.219.219,0,0,0-.219.219v.219a.219.219,0,0,0,.219.219h.219a.219.219,0,0,0,.219-.219v-.219A.219.219,0,0,0,64.438,156Z" transform="translate(-64 -156)"/>
    </g>
  </g>
  <g id="Group_79" data-name="Group 79" transform="translate(0.877 5.043)">
    <g id="Group_78" data-name="Group 78">
      <path id="Path_41" data-name="Path 41" d="M32.438,188h-.219a.219.219,0,0,0-.219.219v.219a.219.219,0,0,0,.219.219h.219a.219.219,0,0,0,.219-.219v-.219A.219.219,0,0,0,32.438,188Z" transform="translate(-32 -188)"/>
    </g>
  </g>
  <g id="Group_81" data-name="Group 81" transform="translate(1.754 5.043)">
    <g id="Group_80" data-name="Group 80">
      <path id="Path_42" data-name="Path 42" d="M64.438,188h-.219a.219.219,0,0,0-.219.219v.219a.219.219,0,0,0,.219.219h.219a.219.219,0,0,0,.219-.219v-.219A.219.219,0,0,0,64.438,188Z" transform="translate(-64 -188)"/>
    </g>
  </g>
  <g id="Group_83" data-name="Group 83" transform="translate(0.877 5.92)">
    <g id="Group_82" data-name="Group 82">
      <path id="Path_43" data-name="Path 43" d="M32.438,220h-.219a.219.219,0,0,0-.219.219v.219a.219.219,0,0,0,.219.219h.219a.219.219,0,0,0,.219-.219v-.219A.219.219,0,0,0,32.438,220Z" transform="translate(-32 -220)"/>
    </g>
  </g>
  <g id="Group_85" data-name="Group 85" transform="translate(1.754 5.92)">
    <g id="Group_84" data-name="Group 84">
      <path id="Path_44" data-name="Path 44" d="M64.438,220h-.219a.219.219,0,0,0-.219.219v.219a.219.219,0,0,0,.219.219h.219a.219.219,0,0,0,.219-.219v-.219A.219.219,0,0,0,64.438,220Z" transform="translate(-64 -220)"/>
    </g>
  </g>
  <g id="Group_87" data-name="Group 87" transform="translate(0.877 6.797)">
    <g id="Group_86" data-name="Group 86">
      <path id="Path_45" data-name="Path 45" d="M32.438,252h-.219a.219.219,0,0,0-.219.219v.219a.219.219,0,0,0,.219.219h.219a.219.219,0,0,0,.219-.219v-.219A.219.219,0,0,0,32.438,252Z" transform="translate(-32 -252)"/>
    </g>
  </g>
  <g id="Group_89" data-name="Group 89" transform="translate(1.754 6.797)">
    <g id="Group_88" data-name="Group 88">
      <path id="Path_46" data-name="Path 46" d="M64.438,252h-.219a.219.219,0,0,0-.219.219v.219a.219.219,0,0,0,.219.219h.219a.219.219,0,0,0,.219-.219v-.219A.219.219,0,0,0,64.438,252Z" transform="translate(-64 -252)"/>
    </g>
  </g>
  <g id="Group_91" data-name="Group 91" transform="translate(0.877 7.674)">
    <g id="Group_90" data-name="Group 90">
      <path id="Path_47" data-name="Path 47" d="M32.438,284h-.219a.219.219,0,0,0-.219.219v.219a.219.219,0,0,0,.219.219h.219a.219.219,0,0,0,.219-.219v-.219A.219.219,0,0,0,32.438,284Z" transform="translate(-32 -284)"/>
    </g>
  </g>
  <g id="Group_93" data-name="Group 93" transform="translate(1.754 7.674)">
    <g id="Group_92" data-name="Group 92">
      <path id="Path_48" data-name="Path 48" d="M64.438,284h-.219a.219.219,0,0,0-.219.219v.219a.219.219,0,0,0,.219.219h.219a.219.219,0,0,0,.219-.219v-.219A.219.219,0,0,0,64.438,284Z" transform="translate(-64 -284)"/>
    </g>
  </g>
  <g id="Group_95" data-name="Group 95" transform="translate(0.877 8.55)">
    <g id="Group_94" data-name="Group 94">
      <path id="Path_49" data-name="Path 49" d="M32.438,316h-.219a.219.219,0,0,0-.219.219v.219a.219.219,0,0,0,.219.219h.219a.219.219,0,0,0,.219-.219v-.219A.219.219,0,0,0,32.438,316Z" transform="translate(-32 -316)"/>
    </g>
  </g>
  <g id="Group_97" data-name="Group 97" transform="translate(1.754 8.55)">
    <g id="Group_96" data-name="Group 96">
      <path id="Path_50" data-name="Path 50" d="M64.438,316h-.219a.219.219,0,0,0-.219.219v.219a.219.219,0,0,0,.219.219h.219a.219.219,0,0,0,.219-.219v-.219A.219.219,0,0,0,64.438,316Z" transform="translate(-64 -316)"/>
    </g>
  </g>
  <g id="Group_99" data-name="Group 99" transform="translate(0.877 9.427)">
    <g id="Group_98" data-name="Group 98">
      <path id="Path_51" data-name="Path 51" d="M32.438,348h-.219a.219.219,0,0,0-.219.219v.219a.219.219,0,0,0,.219.219h.219a.219.219,0,0,0,.219-.219v-.219A.219.219,0,0,0,32.438,348Z" transform="translate(-32 -348)"/>
    </g>
  </g>
  <g id="Group_101" data-name="Group 101" transform="translate(1.754 9.427)">
    <g id="Group_100" data-name="Group 100">
      <path id="Path_52" data-name="Path 52" d="M64.438,348h-.219a.219.219,0,0,0-.219.219v.219a.219.219,0,0,0,.219.219h.219a.219.219,0,0,0,.219-.219v-.219A.219.219,0,0,0,64.438,348Z" transform="translate(-64 -348)"/>
    </g>
  </g>
  <g id="Group_103" data-name="Group 103" transform="translate(0.877 10.304)">
    <g id="Group_102" data-name="Group 102">
      <path id="Path_53" data-name="Path 53" d="M32.438,380h-.219a.219.219,0,0,0-.219.219v.219a.219.219,0,0,0,.219.219h.219a.219.219,0,0,0,.219-.219v-.219A.219.219,0,0,0,32.438,380Z" transform="translate(-32 -380)"/>
    </g>
  </g>
  <g id="Group_105" data-name="Group 105" transform="translate(1.754 10.304)">
    <g id="Group_104" data-name="Group 104">
      <path id="Path_54" data-name="Path 54" d="M64.438,380h-.219a.219.219,0,0,0-.219.219v.219a.219.219,0,0,0,.219.219h.219a.219.219,0,0,0,.219-.219v-.219A.219.219,0,0,0,64.438,380Z" transform="translate(-64 -380)"/>
    </g>
  </g>
  <g id="Group_107" data-name="Group 107" transform="translate(0.877 11.181)">
    <g id="Group_106" data-name="Group 106">
      <path id="Path_55" data-name="Path 55" d="M32.438,412h-.219a.219.219,0,0,0-.219.219v.219a.219.219,0,0,0,.219.219h.219a.219.219,0,0,0,.219-.219v-.219A.219.219,0,0,0,32.438,412Z" transform="translate(-32 -412)"/>
    </g>
  </g>
  <g id="Group_109" data-name="Group 109" transform="translate(1.754 11.181)">
    <g id="Group_108" data-name="Group 108">
      <path id="Path_56" data-name="Path 56" d="M64.438,412h-.219a.219.219,0,0,0-.219.219v.219a.219.219,0,0,0,.219.219h.219a.219.219,0,0,0,.219-.219v-.219A.219.219,0,0,0,64.438,412Z" transform="translate(-64 -412)"/>
    </g>
  </g>
  <g id="Group_111" data-name="Group 111" transform="translate(10.962 2.85)">
    <g id="Group_110" data-name="Group 110" transform="translate(0 0)">
      <path id="Path_57" data-name="Path 57" d="M401.1,108h-.877a.219.219,0,0,0-.219.219v.877a.219.219,0,0,0,.219.219h.877a.219.219,0,0,0,.219-.219v-.877A.219.219,0,0,0,401.1,108Zm-.219.877h-.438v-.438h.438Z" transform="translate(-400 -108)"/>
    </g>
  </g>
  <g id="Group_113" data-name="Group 113" transform="translate(10.962 4.604)">
    <g id="Group_112" data-name="Group 112">
      <path id="Path_58" data-name="Path 58" d="M401.1,172h-.877a.219.219,0,0,0-.219.219v.877a.219.219,0,0,0,.219.219h.877a.219.219,0,0,0,.219-.219v-.877A.219.219,0,0,0,401.1,172Zm-.219.877h-.438v-.438h.438Z" transform="translate(-400 -172)"/>
    </g>
  </g>
  <g id="Group_115" data-name="Group 115" transform="translate(10.962 6.358)">
    <g id="Group_114" data-name="Group 114">
      <path id="Path_59" data-name="Path 59" d="M401.1,236h-.877a.219.219,0,0,0-.219.219v.877a.219.219,0,0,0,.219.219h.877a.219.219,0,0,0,.219-.219v-.877A.219.219,0,0,0,401.1,236Zm-.219.877h-.438v-.439h.438Z" transform="translate(-400 -236)"/>
    </g>
  </g>
  <g id="Group_117" data-name="Group 117" transform="translate(10.962 8.112)">
    <g id="Group_116" data-name="Group 116">
      <path id="Path_60" data-name="Path 60" d="M401.1,300h-.877a.219.219,0,0,0-.219.219v.877a.219.219,0,0,0,.219.219h.877a.219.219,0,0,0,.219-.219v-.877A.219.219,0,0,0,401.1,300Zm-.219.877h-.438v-.438h.438Z" transform="translate(-400 -300)"/>
    </g>
  </g>
  <g id="Group_119" data-name="Group 119" transform="translate(10.962 9.866)">
    <g id="Group_118" data-name="Group 118">
      <path id="Path_61" data-name="Path 61" d="M401.1,364h-.877a.219.219,0,0,0-.219.219v.877a.219.219,0,0,0,.219.219h.877a.219.219,0,0,0,.219-.219v-.877A.219.219,0,0,0,401.1,364Zm-.219.877h-.438v-.439h.438Z" transform="translate(-400 -364)"/>
    </g>
  </g>
</svg>
