<svg id="Layer_1" data-name="Layer 1" xmlns="http://www.w3.org/2000/svg" viewBox="0 0 296.51 104.17"><defs><style>.cls-1{fill:#95f38a;}.cls-2{fill:#3a91ec;}</style></defs><path class="cls-1" d="M145,32.21V59.39H140.6V47.19H127.82v12.2h-4.39V32.21h4.39v11.4H140.6V32.21Z"/><path class="cls-1" d="M175.16,53.5H163.69l-2.08,5.89h-4.69l10-26.75H172l10,26.75h-4.7Zm-1.23-3.39-4.5-12.7-4.51,12.7Z"/><path class="cls-1" d="M222,32.64V59.39h-4.43V39.33l-7.73,20.06H206l-7.77-20.06V59.39h-4.39V32.64h5.31L208,54l8.7-21.36Z"/><path class="cls-1" d="M244,49.48a2,2,0,0,0-1.7-.95h-2V59.39H235.9V32.21h9.58c3.1,0,5.46.76,7.06,2.27a7.91,7.91,0,0,1,2.41,6,7.65,7.65,0,0,1-1.79,5.23A8.58,8.58,0,0,1,248,48.34l7.12,11h-4.93Zm-3.71-4.07h4.85q5.31,0,5.31-4.69a4.61,4.61,0,0,0-1.29-3.48,5.55,5.55,0,0,0-4-1.25h-4.85Z"/><path class="cls-1" d="M287,33.64a12.69,12.69,0,0,1,4.81,4.94,14.6,14.6,0,0,1,1.75,7.18,14.6,14.6,0,0,1-1.75,7.18,12.75,12.75,0,0,1-4.81,5,14,14,0,0,1-13.7,0,12.87,12.87,0,0,1-4.83-5,14.5,14.5,0,0,1-1.77-7.18,14.5,14.5,0,0,1,1.77-7.18,12.81,12.81,0,0,1,4.83-4.94,14.14,14.14,0,0,1,13.7,0Zm-11.49,3.5a8.08,8.08,0,0,0-3.17,3.42,11.32,11.32,0,0,0-1.14,5.2,11.29,11.29,0,0,0,1.14,5.2,8,8,0,0,0,3.17,3.42,9,9,0,0,0,4.66,1.2,8.84,8.84,0,0,0,4.6-1.2A8,8,0,0,0,287.87,51a11.29,11.29,0,0,0,1.14-5.2,11.32,11.32,0,0,0-1.14-5.2,8.1,8.1,0,0,0-3.15-3.42,8.84,8.84,0,0,0-4.6-1.19A9,9,0,0,0,275.46,37.14Z"/><path class="cls-1" d="M131.69,69.32v10.5h-1v-5H125v5H123.9V69.32H125V74h5.69V69.32Z"/><path class="cls-1" d="M163.7,69.89a4.85,4.85,0,0,1,1.82,1.91,6.06,6.06,0,0,1,0,5.54,4.88,4.88,0,0,1-1.82,1.92,5.14,5.14,0,0,1-2.62.68,5.09,5.09,0,0,1-2.62-.68,4.83,4.83,0,0,1-1.83-1.92,6.14,6.14,0,0,1,0-5.54,4.81,4.81,0,0,1,1.83-1.91,5,5,0,0,1,2.62-.69A5.05,5.05,0,0,1,163.7,69.89Zm-4.69.82a3.8,3.8,0,0,0-1.44,1.53,5.36,5.36,0,0,0,0,4.65A3.74,3.74,0,0,0,159,78.42a4.22,4.22,0,0,0,4.13,0,3.74,3.74,0,0,0,1.44-1.53,5.36,5.36,0,0,0,0-4.65,3.8,3.8,0,0,0-1.44-1.53,4.22,4.22,0,0,0-4.13,0Z"/><path class="cls-1" d="M196.58,69.32v.85h-3v9.65h-1V70.17h-3v-.85Z"/><path class="cls-1" d="M221.38,70.17v4h4.09V75h-4.09v4h4.54v.86h-5.6V69.32h5.6v.85Z"/><path class="cls-1" d="M251.13,79H255v.83h-4.87V69.32h1Z"/><polygon class="cls-1" points="7.71 27.58 32.81 13.09 39.23 9.38 39.23 1.96 32.81 5.67 1.29 23.87 1.29 65.63 7.71 61.92 7.71 27.58"/><polygon class="cls-1" points="92.9 34.99 92.9 76.77 67.8 91.26 61.37 94.97 61.37 102.38 67.8 98.67 99.32 80.47 99.32 31.29 92.9 34.99"/><path class="cls-2" d="M61.37,87.54l6.43-3.7V42.07L92.89,27.58l6.42-3.71-6.42-3.71L67.8,5.67,61.37,2v36.4L39.23,51.14V16.8l-6.42,3.71V54.85L17,64h0L7.71,69.34,1.29,73.05v7.42h0l31.52,18.2,6.42,3.71V58.56L61.37,45.78ZM32.81,91.26,7.71,76.77h0l25.1-14.49Zm35-78.17L86.47,23.87,67.8,34.65Z"/></svg>