<svg id="Layer_1" data-name="Layer 1" xmlns="http://www.w3.org/2000/svg" viewBox="0 0 1767.83 664.85"><defs><style>.cls-1{fill:#3a91ec;}.cls-2{fill:#4aa338;}</style></defs><polygon class="cls-1" points="76.82 186.72 227.07 99.97 265.52 77.77 265.52 33.37 227.07 55.57 38.37 164.53 38.37 414.51 76.82 392.31 76.82 186.72"/><polygon class="cls-1" points="586.73 231.1 586.73 481.15 436.49 567.89 398.04 590.09 398.04 634.49 436.49 612.29 625.18 503.34 625.18 208.9 586.73 231.1"/><path class="cls-2" d="M398,545.67l38.45-22.2v-250l150.22-86.73,38.44-22.2-38.45-22.2L436.49,55.57,398,33.37V251.24L265.52,327.75V122.21L227.07,144.4V350l-94.39,54.5h0L76.82,436.72l-38.45,22.2v44.42l188.7,109,38.45,22.2V372.16L398,295.64Zm-171,22.22L76.82,481.15v0l150.25-86.75ZM436.49,100,548.25,164.5,436.49,229Z"/><path class="cls-1" d="M876.77,194V348.54H851.58v-69.4H778.89v69.4h-25V194h25v64.81h72.69V194Z"/><path class="cls-1" d="M1048.2,315.05H983l-11.83,33.49H944.42l56.93-152.16H1030l56.71,152.16H1060Zm-7-19.27-25.62-72.26L990,295.78Z"/><path class="cls-1" d="M1314.66,196.38V348.54h-25.18V234.47l-44,114.07h-21.89l-44.23-114.07V348.54h-25V196.38h30.22L1235,317.89l49.48-121.51Z"/><path class="cls-1" d="M1439.75,292.17a11.43,11.43,0,0,0-9.68-5.37h-11.41v61.74h-25V194h54.52q26.49,0,40.17,12.91T1502.08,241q0,18.18-10.18,29.78t-29.45,14.88l40.5,62.84h-28Zm-21.09-23.11h27.59q30.21,0,30.21-26.71,0-12.69-7.33-19.81t-22.88-7.11h-27.59Z"/><path class="cls-1" d="M1684.13,202.07a72,72,0,0,1,27.37,28.13q10,18.06,10,40.84t-10,40.83a72.76,72.76,0,0,1-27.37,28.25,75.6,75.6,0,0,1-38.86,10.17q-21.68,0-39.08-10.17a73.52,73.52,0,0,1-27.48-28.25q-10.08-18.06-10.07-40.83t10.07-40.84a72.72,72.72,0,0,1,27.48-28.13q17.4-10.08,39.08-10.07A76.11,76.11,0,0,1,1684.13,202.07ZM1618.78,222a46.35,46.35,0,0,0-18.07,19.49q-6.45,12.69-6.45,29.56t6.45,29.55a46.24,46.24,0,0,0,18.07,19.49,51.5,51.5,0,0,0,26.49,6.79,50.56,50.56,0,0,0,26.17-6.79,46.48,46.48,0,0,0,18-19.49q6.45-12.69,6.46-29.55t-6.46-29.56a46.6,46.6,0,0,0-18-19.49,50.56,50.56,0,0,0-26.17-6.79A51.5,51.5,0,0,0,1618.78,222Z"/><path class="cls-2" d="M798.24,415.45v59.73h-5.93v-28.3H760v28.3h-6V415.45h6V442h32.36V415.45Z"/><path class="cls-2" d="M980.31,418.68a27.57,27.57,0,0,1,10.38,10.84,34.91,34.91,0,0,1,0,31.56A27.48,27.48,0,0,1,980.31,472a30.45,30.45,0,0,1-29.82,0,27.41,27.41,0,0,1-10.38-10.88,34.91,34.91,0,0,1,0-31.56,27.5,27.5,0,0,1,10.38-10.84,30.38,30.38,0,0,1,29.82,0Zm-26.64,4.65a21.56,21.56,0,0,0-8.23,8.73,30.61,30.61,0,0,0,0,26.43,21.49,21.49,0,0,0,8.23,8.73,24.08,24.08,0,0,0,23.46,0,21.41,21.41,0,0,0,8.22-8.73,30.51,30.51,0,0,0,0-26.43,21.47,21.47,0,0,0-8.22-8.73,24.08,24.08,0,0,0-23.46,0Z"/><path class="cls-2" d="M1167.37,415.45v4.83h-17v54.9h-5.93v-54.9h-16.94v-4.83Z"/><path class="cls-2" d="M1308.43,420.28v22.54h23.3v4.66h-23.3v22.79h25.84v4.91h-31.85V415.45h31.85v4.83Z"/><path class="cls-2" d="M1477.7,470.44h21.69v4.74h-27.7V415.45h6Z"/></svg>