<svg xmlns="http://www.w3.org/2000/svg" xmlns:xlink="http://www.w3.org/1999/xlink" width="114.689" height="47.565" viewBox="0 0 114.689 47.565">
  <defs>
    <linearGradient id="linear-gradient" x1="0.5" x2="0.5" y2="1" gradientUnits="objectBoundingBox">
      <stop offset="0" stop-color="#3a91ec"/>
      <stop offset="1" stop-color="#426ed9"/>
    </linearGradient>
  </defs>
  <g id="Group_489" data-name="Group 489" transform="translate(-2103 388)">
    <g id="Group_456" data-name="Group 456" transform="translate(2103 -388)">
      <circle id="Ellipse_38" data-name="Ellipse 38" cx="4.96" cy="4.96" r="4.96" transform="translate(16.361 23.375) rotate(-45)" fill="url(#linear-gradient)"/>
      <circle id="Ellipse_39" data-name="Ellipse 39" cx="4.96" cy="4.96" r="4.96" transform="translate(33.388 7.015) rotate(-45)" fill="url(#linear-gradient)"/>
      <circle id="Ellipse_40" data-name="Ellipse 40" cx="4.96" cy="4.96" r="4.96" transform="translate(0 40.55) rotate(-45)" fill="url(#linear-gradient)"/>
      <g id="Group_452" data-name="Group 452" transform="translate(8.493 8.493)">
        <path id="Path_193" data-name="Path 193" d="M396.248,541.5a9.046,9.046,0,0,1,8.14,13.024l4.262,4.262a14.881,14.881,0,0,0-20.627-20.627l4.262,4.262A9.011,9.011,0,0,1,396.248,541.5Z" transform="translate(-381.366 -535.676)" fill="url(#linear-gradient)"/>
        <path id="Path_194" data-name="Path 194" d="M364.457,593.033a9.06,9.06,0,0,1-8.321-12.648l-4.3-4.3a14.88,14.88,0,0,0,20.5,20.505l-4.3-4.3A9.026,9.026,0,0,1,364.457,593.033Z" transform="translate(-349.575 -569.089)" fill="url(#linear-gradient)"/>
      </g>
    </g>
    <g id="Group_481" data-name="Group 481" transform="translate(2147.968 -371.691)">
      <g id="Group_458" data-name="Group 458" transform="translate(0)">
        <path id="Path_195" data-name="Path 195" d="M551.419,584.467a3.932,3.932,0,0,1,1.408,2.106h-1.165a2.859,2.859,0,0,0-1.056-1.354,3.061,3.061,0,0,0-1.785-.5,2.749,2.749,0,0,0-2.543,1.572,3.894,3.894,0,0,0-.383,1.778,3.828,3.828,0,0,0,.383,1.761,2.755,2.755,0,0,0,2.543,1.566,3.063,3.063,0,0,0,1.785-.5,2.858,2.858,0,0,0,1.056-1.354h1.165a3.933,3.933,0,0,1-1.408,2.106,4.167,4.167,0,0,1-2.586.771,4.053,4.053,0,0,1-2.125-.553,3.8,3.8,0,0,1-1.438-1.542,4.8,4.8,0,0,1-.516-2.252,4.857,4.857,0,0,1,.516-2.27,3.8,3.8,0,0,1,1.438-1.548,4.057,4.057,0,0,1,2.125-.552A4.166,4.166,0,0,1,551.419,584.467Z" transform="translate(-544.754 -583.04)" fill="#55c779"/>
        <path id="Path_196" data-name="Path 196" d="M590.309,592.42a2.952,2.952,0,0,1,1.19,1.19,4.053,4.053,0,0,1,0,3.636,2.959,2.959,0,0,1-1.19,1.184,3.781,3.781,0,0,1-3.436,0,3,3,0,0,1-1.2-1.184,4,4,0,0,1,0-3.636,3,3,0,0,1,1.2-1.19,3.78,3.78,0,0,1,3.436,0Zm-2.816.825a2.011,2.011,0,0,0-.814.82,3.14,3.14,0,0,0,0,2.72,2.013,2.013,0,0,0,.814.82,2.394,2.394,0,0,0,2.2,0,2.007,2.007,0,0,0,.813-.82,3.143,3.143,0,0,0,0-2.72,2.005,2.005,0,0,0-.813-.82,2.394,2.394,0,0,0-2.2,0Z" transform="translate(-576.015 -589.457)" fill="#55c779"/>
        <path id="Path_197" data-name="Path 197" d="M626.324,592.647a2.994,2.994,0,0,1,.716,2.155v3.873h-1.1V594.9a2.129,2.129,0,0,0-.51-1.53,1.822,1.822,0,0,0-1.383-.534,1.892,1.892,0,0,0-1.457.589,2.443,2.443,0,0,0-.546,1.718v3.533h-1.1v-6.665h1.1v1.578a2.27,2.27,0,0,1,.9-1.25,2.624,2.624,0,0,1,1.5-.437A2.488,2.488,0,0,1,626.324,592.647Z" transform="translate(-603.574 -589.375)" fill="#55c779"/>
        <path id="Path_198" data-name="Path 198" d="M660.583,592.647a2.993,2.993,0,0,1,.716,2.155v3.873h-1.1V594.9a2.129,2.129,0,0,0-.51-1.53,1.822,1.822,0,0,0-1.384-.534,1.892,1.892,0,0,0-1.457.589,2.443,2.443,0,0,0-.546,1.718v3.533h-1.1v-6.665h1.1v1.578a2.269,2.269,0,0,1,.9-1.25,2.624,2.624,0,0,1,1.5-.437A2.488,2.488,0,0,1,660.583,592.647Z" transform="translate(-630.026 -589.375)" fill="#55c779"/>
        <path id="Path_199" data-name="Path 199" d="M694.42,595.661h-5.33a2.336,2.336,0,0,0,.649,1.712,2.12,2.12,0,0,0,1.5.571,2.167,2.167,0,0,0,1.342-.407,1.686,1.686,0,0,0,.661-1.087h1.178a2.784,2.784,0,0,1-1.627,2.088,3.6,3.6,0,0,1-1.506.3,3.428,3.428,0,0,1-1.7-.413,2.914,2.914,0,0,1-1.16-1.184,4.153,4.153,0,0,1,0-3.636,2.907,2.907,0,0,1,1.16-1.19,3.43,3.43,0,0,1,1.7-.413,3.355,3.355,0,0,1,1.693.413,2.849,2.849,0,0,1,1.105,1.1,3.112,3.112,0,0,1,.382,1.53A3.293,3.293,0,0,1,694.42,595.661Zm-1.311-1.772a1.781,1.781,0,0,0-.765-.741,2.325,2.325,0,0,0-1.056-.243,2.187,2.187,0,0,0-1.53.564,2.277,2.277,0,0,0-.667,1.657h4.262A2.274,2.274,0,0,0,693.109,593.889Z" transform="translate(-655.364 -589.457)" fill="#55c779"/>
        <path id="Path_200" data-name="Path 200" d="M726.643,592.687a2.881,2.881,0,0,1,1.032,1.821H726.51a1.7,1.7,0,0,0-.661-1.123,2.341,2.341,0,0,0-2.4-.14,1.95,1.95,0,0,0-.771.82,3.348,3.348,0,0,0,0,2.732,1.947,1.947,0,0,0,.771.819,2.325,2.325,0,0,0,2.4-.146,1.725,1.725,0,0,0,.661-1.129h1.165a2.862,2.862,0,0,1-1.032,1.827,3.262,3.262,0,0,1-2.112.674,3.427,3.427,0,0,1-1.7-.413,2.913,2.913,0,0,1-1.159-1.184,4.152,4.152,0,0,1,0-3.636,2.906,2.906,0,0,1,1.159-1.19,3.43,3.43,0,0,1,1.7-.413A3.244,3.244,0,0,1,726.643,592.687Z" transform="translate(-681.032 -589.457)" fill="#55c779"/>
        <path id="Path_201" data-name="Path 201" d="M756.691,592.439v.971h-.826a2.121,2.121,0,0,1-1.524-.485,2.192,2.192,0,0,1-.5-1.627V587.7h-1v-.959h1v-1.663h1.117v1.663h1.724v.959h-1.724v3.618a1.246,1.246,0,0,0,.237.88,1.139,1.139,0,0,0,.819.237Z" transform="translate(-705.422 -584.111)" fill="#55c779"/>
        <path id="Path_202" data-name="Path 202" d="M775,581.007a.887.887,0,0,1,1.092,0,.689.689,0,0,1,0,.984.886.886,0,0,1-1.092,0,.688.688,0,0,1,0-.984Zm1.092,2.447v6.665h-1.1v-6.665Z" transform="translate(-722.37 -580.819)" fill="#55c779"/>
        <path id="Path_203" data-name="Path 203" d="M793.66,592.647a2.994,2.994,0,0,1,.716,2.155v3.873h-1.1V594.9a2.129,2.129,0,0,0-.51-1.53,1.822,1.822,0,0,0-1.383-.534,1.893,1.893,0,0,0-1.457.589,2.443,2.443,0,0,0-.546,1.718v3.533h-1.1v-6.665h1.1v1.578a2.27,2.27,0,0,1,.9-1.25,2.624,2.624,0,0,1,1.5-.437A2.488,2.488,0,0,1,793.66,592.647Z" transform="translate(-732.777 -589.375)" fill="#55c779"/>
        <path id="Path_204" data-name="Path 204" d="M825.792,592.492a2.532,2.532,0,0,1,.94,1.3v-1.7h1.1v6.774a3.388,3.388,0,0,1-.388,1.639,2.8,2.8,0,0,1-1.092,1.117,3.263,3.263,0,0,1-1.639.4,3.52,3.52,0,0,1-2.2-.649,2.865,2.865,0,0,1-1.081-1.754h1.093a1.891,1.891,0,0,0,.734,1.05,2.352,2.352,0,0,0,1.39.383,2.04,2.04,0,0,0,1.487-.577,2.149,2.149,0,0,0,.588-1.609v-1.809a2.53,2.53,0,0,1-.94,1.3,2.743,2.743,0,0,1-1.646.485,3.017,3.017,0,0,1-1.578-.413,2.856,2.856,0,0,1-1.087-1.184,3.934,3.934,0,0,1-.394-1.815,3.974,3.974,0,0,1,.394-1.821,2.85,2.85,0,0,1,1.087-1.19,3.02,3.02,0,0,1,1.578-.413A2.744,2.744,0,0,1,825.792,592.492Zm-2.963,1.147a2.922,2.922,0,0,0,0,3.582,2.138,2.138,0,0,0,1.633.649,2.263,2.263,0,0,0,1.171-.3,2.108,2.108,0,0,0,.808-.856,2.706,2.706,0,0,0,.291-1.281,2.745,2.745,0,0,0-.291-1.287,2.062,2.062,0,0,0-.808-.856,2.3,2.3,0,0,0-1.171-.3A2.14,2.14,0,0,0,822.829,593.64Z" transform="translate(-758.115 -589.457)" fill="#55c779"/>
      </g>
      <g id="Group_457" data-name="Group 457" transform="translate(0.962 12.126)">
        <path id="Path_209" data-name="Path 209" d="M610.817,640.621h-.561l-3.045-4.647v4.647h-.561v-5.555h.561l3.045,4.655v-4.655h.561Z" transform="translate(-606.651 -634.782)" fill="#55c779"/>
        <path id="Path_210" data-name="Path 210" d="M628.582,643.093a1.174,1.174,0,0,0,.473-.789h.584a1.751,1.751,0,0,1-.654,1.112,2.114,2.114,0,0,1-1.358.426,2.215,2.215,0,0,1-1.093-.264,1.853,1.853,0,0,1-.746-.765,2.732,2.732,0,0,1,0-2.359,1.856,1.856,0,0,1,.746-.766,2.223,2.223,0,0,1,1.093-.264,2.164,2.164,0,0,1,1.093.264,1.8,1.8,0,0,1,.7.706,1.982,1.982,0,0,1,.241.963,2.34,2.34,0,0,1-.032.4h-3.565a1.817,1.817,0,0,0,.224.911,1.354,1.354,0,0,0,.565.54,1.643,1.643,0,0,0,.749.174A1.6,1.6,0,0,0,628.582,643.093Zm-1.72-3.046a1.374,1.374,0,0,0-.565.533,1.806,1.806,0,0,0-.232.9h3.045a1.584,1.584,0,0,0-.173-.891,1.292,1.292,0,0,0-.552-.537,1.758,1.758,0,0,0-1.523,0Z" transform="translate(-620.36 -637.948)" fill="#55c779"/>
        <path id="Path_211" data-name="Path 211" d="M647.65,639.688a1.829,1.829,0,0,1,.71.766,2.826,2.826,0,0,1,0,2.351,1.844,1.844,0,0,1-.714.769,2.023,2.023,0,0,1-1.042.268,1.831,1.831,0,0,1-1.121-.339,1.723,1.723,0,0,1-.63-.9v3.219H644.3v-6.344h.553v1.184a1.723,1.723,0,0,1,.63-.9,1.831,1.831,0,0,1,1.121-.339A2.045,2.045,0,0,1,647.65,639.688Zm-2.02.438a1.469,1.469,0,0,0-.572.6,2.093,2.093,0,0,0,0,1.807,1.467,1.467,0,0,0,.572.6,1.61,1.61,0,0,0,.825.213,1.525,1.525,0,0,0,1.167-.462,2.04,2.04,0,0,0,0-2.517,1.524,1.524,0,0,0-1.167-.462A1.608,1.608,0,0,0,645.63,640.126Z" transform="translate(-634.004 -637.948)" fill="#55c779"/>
        <path id="Path_212" data-name="Path 212" d="M666.1,639.763a1.718,1.718,0,0,1,.636.9v-1.184h.544v4.308h-.544V642.6a1.718,1.718,0,0,1-.636.9,1.832,1.832,0,0,1-1.116.339,2.044,2.044,0,0,1-1.046-.268,1.821,1.821,0,0,1-.717-.769,2.815,2.815,0,0,1,0-2.351,1.809,1.809,0,0,1,.713-.766,2.069,2.069,0,0,1,1.05-.264A1.832,1.832,0,0,1,666.1,639.763Zm-2.138.612a2.029,2.029,0,0,0,0,2.517,1.531,1.531,0,0,0,1.165.462,1.608,1.608,0,0,0,.823-.213,1.5,1.5,0,0,0,.577-.6,2.056,2.056,0,0,0,0-1.807,1.5,1.5,0,0,0-.577-.6,1.605,1.605,0,0,0-.823-.213A1.53,1.53,0,0,0,663.963,640.375Z" transform="translate(-647.564 -637.948)" fill="#55c779"/>
        <path id="Path_213" data-name="Path 213" d="M683.691,634.029v5.838h-.561v-5.838Z" transform="translate(-662.214 -634.029)" fill="#55c779"/>
      </g>
    </g>
  </g>
</svg>
