<svg id="Layer_1" data-name="Layer 1" xmlns="http://www.w3.org/2000/svg" viewBox="0 0 141.73 141.73"><defs><style>.cls-1{fill:#95f38a;}.cls-2{fill:#3a91ec;}</style></defs><polygon class="cls-1" points="28.27 46.27 53.37 31.78 59.8 28.07 59.8 20.66 53.37 24.36 21.85 42.57 21.85 84.33 28.27 80.62 28.27 46.27"/><polygon class="cls-1" points="113.46 53.69 113.46 95.46 88.36 109.95 81.94 113.66 81.94 121.08 88.36 117.37 119.88 99.17 119.88 49.98 113.46 53.69"/><path class="cls-2" d="M81.94,106.24l6.42-3.71V60.76l25.09-14.49,6.43-3.71-6.43-3.71L88.36,24.36l-6.42-3.7V57.05L59.8,69.83V35.5l-6.43,3.7V73.54L37.61,82.65h0L28.27,88l-6.42,3.71v7.41h0l31.52,18.2,6.43,3.71V77.25L81.94,64.47ZM53.37,110,28.27,95.46h0L53.37,81Zm35-78.17L107,42.56,88.36,53.34Z"/></svg>